<svg xmlns="http://www.w3.org/2000/svg" width="60" height="60" viewBox="0 0 60 60">
  <path fill="#F7E537" d="M37.7566138,43.043 C35.8806138,45.669 32.8326138,47.357 29.3626138,47.357 C24.9086138,47.357 21.1106138,44.497 19.6566138,40.511 C19.6566138,40.465 19.6096138,40.418 19.6096138,40.324 C19.5626138,40.23 19.5626138,40.136 19.5156138,40.044 C17.9686138,35.072 20.0786138,30.008 23.5016138,25.928 C28.0486138,20.58 27.0636138,12 27.0636138,12 C48.1656138,30.898 37.7556138,43.043 37.7556138,43.043 L37.7566138,43.043 Z M32.6916138,33.477 C30.4876138,30.851 30.9566138,26.677 30.9566138,26.677 C20.6396138,35.915 25.7516138,41.87 25.7516138,41.87 C26.6416138,43.136 28.1436138,43.98 29.8316138,43.98 C32.0356138,43.98 33.8646138,42.573 34.5676138,40.604 C34.5676138,40.557 34.5676138,40.557 34.6146138,40.51 C34.6146138,40.463 34.6616138,40.416 34.6616138,40.37 C35.4116138,37.932 34.3816138,35.447 32.6916138,33.477 Z"/>
</svg>
