<svg xmlns="http://www.w3.org/2000/svg" width="60" height="60" viewBox="0 0 60 60">
  <path fill="#F7E537" d="M33.463,34.325 C32.448,34.918 31.266,35.26 30.005,35.26 C28.755,35.26 27.582,34.923 26.572,34.34 L20.024,45.68 C22.96,47.37 26.367,48.34 30,48.34 C33.646,48.34 37.064,47.364 40.008,45.66 L33.463,34.325 Z M26.597,22.4 L20.005,11 C14.025,14.455 10,20.896 10,28.3 L10,28.328 L23.138,28.328 C23.138,25.546 24.531,23.583 26.598,22.398 L26.597,22.4 Z M40.028,11.033 L40.028,11.032 C45.99,14.494 50,20.919 50,28.309 L50,28.329 L36.873,28.329 C36.873,25.548 35.491,23.603 33.438,22.413 L40.028,11.033 Z M30.005,31.848 C28.0963039,31.848 26.549,30.3006961 26.549,28.392 C26.549,26.4833039 28.0963039,24.936 30.005,24.936 C31.9136961,24.936 33.461,26.4833039 33.461,28.392 C33.461,30.3006961 31.9136961,31.848 30.005,31.848 Z"/>
</svg>
