<svg xmlns="http://www.w3.org/2000/svg" width="134" height="50" viewBox="0 0 134 50">
  <path fill="#FFF" fill-rule="evenodd" d="M246.06294,629 L246.001831,629 C241.440799,635.072234 234.179089,639 226,639 C212.192881,639 201,627.807119 201,614 C201,600.192881 212.192881,589 226,589 C234.179089,589 241.440799,592.927766 246.001831,599 L246.06294,599 C250.30992,606.747387 258.541553,612 268,612 C277.458447,612 285.69008,606.747387 289.93706,599 L289.998169,599 C294.559201,592.927766 301.820911,589 310,589 C323.807119,589 335,600.192881 335,614 C335,627.807119 323.807119,639 310,639 C301.820911,639 294.559201,635.072234 289.998169,629 L289.93706,629 C285.69008,621.252613 277.458447,616 268,616 C258.541553,616 250.30992,621.252613 246.06294,629 Z" transform="translate(-201 -589)"/>
</svg>
