<?xml version="1.0" encoding="UTF-8"?>
<!-- Generator: Adobe Illustrator 17.0.0, SVG Export Plug-In . SVG Version: 6.00 Build 0)  -->
<svg xmlns="http://www.w3.org/2000/svg" xmlns:xlink="http://www.w3.org/1999/xlink" version="1.1" id="Laag_1" x="0px" y="0px" width="300px" height="81px" viewBox="0 0 300 81" enable-background="new 0 0 300 81" xml:space="preserve">
<g id="Nieuw_symbool">
</g>
<g id="Nieuw_symbool_1_">
</g>
<g>
	<path fill="#FFFFFF" d="M8.987,23.77c0.914-2.324,1.808-4.34,2.682-6.05L20.579,0h4.973L10.593,28.626H5.541L2.722,0h4.543   l1.449,17.72c0.117,1.345,0.189,2.865,0.215,4.562l-0.02,1.488H8.987z"/>
	<path fill="#FFFFFF" d="M30.104,29.018c-1.841,0-3.296-0.661-4.366-1.988c-1.07-1.323-1.606-3.187-1.606-5.589   c0-2.637,0.454-5.104,1.361-7.401c0.907-2.297,2.157-4.114,3.75-5.454c1.593-1.336,3.342-2.006,5.247-2.006   c1.266,0,2.356,0.298,3.27,0.892c0.914,0.594,1.625,1.458,2.134,2.593h0.196l1.214-3.094h3.524l-4.621,21.656h-3.564l0.411-3.446   h-0.117C34.876,27.739,32.598,29.018,30.104,29.018z M31.788,25.298c1.07,0,2.121-0.505,3.152-1.519   c1.031-1.009,1.88-2.365,2.545-4.062s0.999-3.551,0.999-5.561c0-1.149-0.307-2.071-0.92-2.77c-0.614-0.698-1.416-1.049-2.408-1.049   c-1.11,0-2.154,0.503-3.133,1.508c-0.979,1.005-1.762,2.374-2.35,4.101c-0.587,1.732-0.881,3.522-0.881,5.376   c0,1.331,0.264,2.328,0.793,2.987C30.114,24.969,30.849,25.298,31.788,25.298z"/>
	<path fill="#FFFFFF" d="M59.66,28.626l2.78-13.158c0.235-1.175,0.352-2.03,0.352-2.565c0-1.71-0.842-2.565-2.526-2.565   c-0.94,0-1.867,0.372-2.78,1.116c-0.914,0.744-1.736,1.819-2.467,3.222c-0.731,1.403-1.279,2.991-1.645,4.767l-1.919,9.183h-4.621   l4.621-21.656h3.603l-0.411,4.014h0.176c1.083-1.54,2.2-2.659,3.348-3.357c1.149-0.698,2.395-1.049,3.74-1.049   c1.749,0,3.103,0.496,4.063,1.488s1.439,2.402,1.439,4.229c0,0.901-0.15,2.082-0.45,3.544l-2.682,12.786H59.66z"/>
	<path fill="#F6E437" d="M99.153,28.626H81.864v-3.524l10.143-13.804h-9.536V6.736H98.8v3.877l-9.868,13.452h10.221V28.626z"/>
	<path fill="#F6E437" d="M121.874,28.626l-1.684-7.656l-2.271-9.673h-0.137l-3.994,17.328h-6.422l-6.226-21.891h5.952l2.526,9.692   c0.405,1.736,0.816,4.131,1.234,7.186h0.117c0.052-0.992,0.281-2.565,0.685-4.719l0.313-1.664l2.702-10.495h6.579l2.565,10.495   c0.052,0.287,0.134,0.711,0.245,1.273s0.219,1.16,0.323,1.79c0.104,0.635,0.199,1.253,0.284,1.862   c0.085,0.605,0.134,1.092,0.147,1.458h0.117c0.117-0.94,0.326-2.228,0.627-3.868c0.3-1.636,0.516-2.743,0.646-3.318l2.624-9.692   h5.854l-6.305,21.891H121.874z"/>
	<path fill="#F6E437" d="M152.508,28.626l-1.155-2.976h-0.157c-1.005,1.266-2.04,2.145-3.103,2.632   c-1.064,0.492-2.451,0.735-4.161,0.735c-2.102,0-3.756-0.6-4.964-1.801s-1.811-2.911-1.811-5.13c0-2.324,0.813-4.036,2.438-5.139   s4.076-1.714,7.352-1.832l3.799-0.117v-0.959c0-2.219-1.136-3.329-3.407-3.329c-1.749,0-3.805,0.529-6.168,1.586l-1.978-4.034   c2.519-1.318,5.313-1.978,8.38-1.978c2.937,0,5.189,0.64,6.755,1.919c1.566,1.279,2.35,3.224,2.35,5.835v14.587H152.508z    M150.745,18.484l-2.31,0.078c-1.736,0.052-3.028,0.365-3.877,0.94c-0.848,0.574-1.273,1.449-1.273,2.624   c0,1.684,0.966,2.526,2.898,2.526c1.384,0,2.49-0.398,3.319-1.194c0.829-0.796,1.243-1.854,1.243-3.172V18.484z"/>
	<path fill="#F6E437" d="M175.445,6.324c0.809,0,1.482,0.059,2.017,0.176l-0.45,5.6c-0.483-0.131-1.07-0.196-1.762-0.196   c-1.906,0-3.391,0.49-4.454,1.469s-1.596,2.35-1.596,4.112v11.141h-5.972V6.736h4.523l0.881,3.681h0.294   c0.679-1.227,1.596-2.215,2.751-2.967C172.831,6.701,174.087,6.324,175.445,6.324z"/>
	<path fill="#F6E437" d="M191.06,24.26c1.044,0,2.297-0.228,3.759-0.685v4.445c-1.488,0.666-3.316,0.999-5.482,0.999   c-2.389,0-4.128-0.603-5.218-1.81c-1.09-1.207-1.635-3.02-1.635-5.435V11.219h-2.859V8.694l3.289-1.997l1.723-4.621h3.818v4.66   h6.129v4.484h-6.129v10.554c0,0.848,0.238,1.475,0.715,1.88C189.647,24.057,190.277,24.26,191.06,24.26z"/>
	<path fill="#FFFFFF" d="M12.825,70.954l2.78-13.158c0.235-1.175,0.352-2.03,0.352-2.565c0-1.71-0.842-2.565-2.526-2.565   c-0.94,0-1.867,0.372-2.78,1.116c-0.914,0.744-1.736,1.819-2.467,3.222c-0.731,1.403-1.279,2.991-1.645,4.767l-1.919,9.183H0   l4.621-21.656h3.603l-0.411,4.014h0.176c1.083-1.54,2.2-2.659,3.348-3.357c1.149-0.698,2.395-1.049,3.74-1.049   c1.749,0,3.103,0.496,4.063,1.488c0.959,0.992,1.439,2.402,1.439,4.229c0,0.901-0.15,2.082-0.45,3.544l-2.682,12.786H12.825z"/>
	<path fill="#FFFFFF" d="M30.946,71.346c-1.841,0-3.296-0.661-4.366-1.988c-1.07-1.323-1.606-3.187-1.606-5.589   c0-2.637,0.454-5.104,1.361-7.401c0.907-2.297,2.157-4.114,3.75-5.454c1.593-1.336,3.342-2.006,5.247-2.006   c1.266,0,2.356,0.298,3.27,0.892c0.914,0.594,1.625,1.458,2.134,2.593h0.196l1.214-3.094h3.524L41.05,70.954h-3.564l0.411-3.446   H37.78C35.717,70.066,33.44,71.346,30.946,71.346z M32.63,67.626c1.07,0,2.121-0.505,3.152-1.519   c1.031-1.009,1.88-2.365,2.545-4.062c0.666-1.697,0.999-3.551,0.999-5.561c0-1.149-0.307-2.071-0.92-2.77   c-0.614-0.698-1.416-1.049-2.408-1.049c-1.11,0-2.154,0.503-3.133,1.508c-0.979,1.005-1.762,2.374-2.35,4.101   c-0.587,1.732-0.881,3.522-0.881,5.376c0,1.331,0.264,2.328,0.793,2.987C30.956,67.297,31.69,67.626,32.63,67.626z"/>
	<path fill="#FFFFFF" d="M54.569,71.346c-1.841,0-3.296-0.661-4.366-1.988c-1.07-1.323-1.606-3.187-1.606-5.589   c0-2.637,0.454-5.104,1.361-7.401c0.907-2.297,2.157-4.114,3.75-5.454c1.593-1.336,3.342-2.006,5.247-2.006   c1.266,0,2.356,0.298,3.27,0.892c0.914,0.594,1.625,1.458,2.134,2.593h0.196l1.214-3.094h3.524l-4.621,21.656h-3.564l0.411-3.446   h-0.117C59.34,70.066,57.062,71.346,54.569,71.346z M56.253,67.626c1.07,0,2.121-0.505,3.152-1.519   c1.031-1.009,1.88-2.365,2.545-4.062c0.666-1.697,0.999-3.551,0.999-5.561c0-1.149-0.307-2.071-0.92-2.77   c-0.614-0.698-1.416-1.049-2.408-1.049c-1.11,0-2.154,0.503-3.133,1.508s-1.762,2.374-2.35,4.101   c-0.587,1.732-0.881,3.522-0.881,5.376c0,1.331,0.264,2.328,0.793,2.987C54.579,67.297,55.313,67.626,56.253,67.626z"/>
	<path fill="#FFFFFF" d="M85.985,48.907c0.809,0,1.514,0.078,2.115,0.235l-0.999,4.288c-0.705-0.183-1.371-0.274-1.997-0.274   c-1.645,0-3.113,0.738-4.406,2.213c-1.292,1.475-2.193,3.407-2.702,5.796l-2.075,9.79H71.3l4.621-21.656h3.603l-0.411,4.014h0.176   c1.083-1.566,2.167-2.691,3.25-3.379C83.622,49.251,84.771,48.907,85.985,48.907z"/>
	<path fill="#FFFFFF" d="M120.151,49.064v3.035l-3.427,0.881c0.627,0.979,0.94,2.075,0.94,3.289c0,2.35-0.819,4.181-2.457,5.491   c-1.638,1.314-3.913,1.969-6.824,1.969l-1.077-0.059l-0.881-0.098c-0.614,0.47-0.92,0.992-0.92,1.566   c0,0.862,1.096,1.292,3.289,1.292h3.72c2.402,0,4.233,0.516,5.492,1.547c1.26,1.031,1.889,2.545,1.889,4.543   c0,2.558-1.067,4.543-3.201,5.952c-2.134,1.41-5.199,2.115-9.193,2.115c-3.054,0-5.388-0.533-7-1.597   c-1.612-1.064-2.418-2.554-2.418-4.473c0-1.318,0.411-2.421,1.234-3.309s2.03-1.521,3.622-1.899   c-0.614-0.261-1.149-0.687-1.606-1.284c-0.457-0.592-0.685-1.223-0.685-1.888c0-0.835,0.241-1.529,0.724-2.084   s1.181-1.101,2.095-1.636c-1.149-0.496-2.059-1.292-2.731-2.389c-0.672-1.096-1.008-2.389-1.008-3.877   c0-2.389,0.777-4.236,2.33-5.541c1.553-1.305,3.772-1.958,6.657-1.958c0.614,0,1.341,0.057,2.183,0.168   c0.842,0.111,1.38,0.191,1.615,0.244H120.151z M103.254,74.048c0,0.822,0.395,1.469,1.185,1.938s1.896,0.705,3.319,0.705   c2.141,0,3.818-0.294,5.032-0.881c1.214-0.587,1.821-1.39,1.821-2.408c0-0.822-0.359-1.39-1.077-1.703   c-0.718-0.313-1.827-0.47-3.329-0.47h-3.094c-1.096,0-2.013,0.257-2.751,0.774C103.623,72.516,103.254,73.199,103.254,74.048z    M105.427,56.23c0,1.188,0.271,2.128,0.813,2.82s1.367,1.038,2.477,1.038c1.123,0,1.945-0.346,2.467-1.038   c0.522-0.692,0.783-1.632,0.783-2.82c0-2.637-1.083-3.955-3.25-3.955C106.524,52.275,105.427,53.593,105.427,56.23z"/>
	<path fill="#FFFFFF" d="M136.374,48.652c0.809,0,1.482,0.059,2.017,0.176l-0.45,5.6c-0.483-0.131-1.07-0.196-1.762-0.196   c-1.906,0-3.391,0.49-4.454,1.469c-1.064,0.979-1.596,2.35-1.596,4.112v11.141h-5.972V49.064h4.523l0.881,3.681h0.294   c0.679-1.227,1.596-2.215,2.751-2.967C133.76,49.029,135.016,48.652,136.374,48.652z"/>
	<path fill="#FFFFFF" d="M162.659,59.97c0,3.564-0.94,6.35-2.82,8.361c-1.88,2.01-4.497,3.015-7.852,3.015   c-2.102,0-3.955-0.461-5.561-1.379c-1.606-0.922-2.839-2.243-3.701-3.966s-1.292-3.733-1.292-6.031c0-3.577,0.933-6.357,2.8-8.341   s4.49-2.976,7.871-2.976c2.102,0,3.955,0.457,5.561,1.371s2.839,2.226,3.701,3.936S162.659,57.672,162.659,59.97z M147.523,59.97   c0,2.167,0.356,3.805,1.067,4.915s1.87,1.664,3.475,1.664c1.593,0,2.738-0.55,3.436-1.656c0.698-1.101,1.048-2.743,1.048-4.923   c0-2.167-0.352-3.792-1.057-4.875s-1.86-1.625-3.466-1.625c-1.593,0-2.741,0.537-3.446,1.616   C147.876,56.16,147.523,57.79,147.523,59.97z"/>
	<path fill="#FFFFFF" d="M177.902,71.346c-3.524,0-6.279-0.972-8.263-2.917c-1.984-1.945-2.976-4.699-2.976-8.263   c0-3.668,0.917-6.503,2.751-8.509c1.834-2.002,4.37-3.004,7.607-3.004c3.094,0,5.502,0.881,7.225,2.643s2.585,4.197,2.585,7.303   v2.898h-14.117c0.065,1.697,0.568,3.022,1.508,3.975c0.94,0.953,2.258,1.429,3.955,1.429c1.318,0,2.565-0.137,3.74-0.411   c1.175-0.274,2.402-0.711,3.681-1.312v4.621c-1.044,0.522-2.16,0.912-3.348,1.164C181.061,71.22,179.612,71.346,177.902,71.346z    M177.06,52.901c-1.266,0-2.258,0.4-2.976,1.205c-0.718,0.801-1.129,1.941-1.234,3.416h8.38c-0.026-1.475-0.411-2.615-1.155-3.416   C179.331,53.302,178.326,52.901,177.06,52.901z"/>
	<path fill="#FFFFFF" d="M212.295,70.954h-5.972V58.168c0-1.579-0.281-2.763-0.842-3.553c-0.561-0.79-1.455-1.186-2.682-1.186   c-1.671,0-2.878,0.559-3.622,1.673c-0.744,1.118-1.116,2.967-1.116,5.552v10.299h-5.972V49.064h4.562l0.803,2.8h0.333   c0.666-1.057,1.583-1.856,2.751-2.4c1.168-0.54,2.496-0.811,3.985-0.811c2.545,0,4.477,0.69,5.796,2.065   c1.318,1.379,1.978,3.366,1.978,5.963V70.954z"/>
	<circle fill="#FFFFFF" cx="234.689" cy="15.349" r="13.268"/>
	<circle fill="#F6E437" cx="278.771" cy="59.357" r="21.229"/>
</g>
</svg>