<svg xmlns="http://www.w3.org/2000/svg" width="60" height="60" viewBox="0 0 60 60">
  <path fill="#F7E537" d="M38.1681715,12.3794373 C37.9581715,12.1074373 37.5081715,11.9444373 37.1721715,12.0174373 L14.3501715,16.9404373 C14.0131715,17.0134373 13.6501715,17.3404373 13.5421715,17.6664373 L10.0721715,28.1664373 C9.96417146,28.4934373 9.97917146,29.0234373 10.1051715,29.3434373 L15.3951715,42.8104373 C15.5201715,43.1304373 15.8991715,43.4484373 16.2351715,43.5154373 L35.4651715,47.3374373 C35.8031715,47.4044373 36.2451715,47.2314373 36.4451715,46.9524373 L49.8531715,28.4094373 C50.0531715,28.1294373 50.0471715,27.6794373 49.8361715,27.4074373 L38.1681715,12.3774373 L38.1681715,12.3794373 Z M34.9801715,44.0114373 C34.9841715,44.3554373 34.9031715,44.3684373 34.8021715,44.0394373 L31.3321715,32.7664373 C31.2321715,32.4364373 30.8801715,32.0864373 30.5521715,31.9834373 L16.6661715,27.6864373 C16.3361715,27.5844373 16.3481715,27.5344373 16.6901715,27.5764373 L31.3551715,29.3214373 C31.6971715,29.3614373 32.0781715,29.1314373 32.2021715,28.8114373 L35.8971715,19.2664373 C36.0221715,18.9464373 36.0831715,18.9614373 36.0341715,19.3024373 L34.6581715,28.8764373 C34.6081715,29.2164373 34.8461715,29.4444373 35.1841715,29.3814373 L41.7271715,28.1614373 C42.0671715,28.0974373 42.0971715,28.1814373 41.7951715,28.3494373 L35.4401715,31.8664373 C35.1401715,32.0334373 34.8951715,32.4514373 34.8981715,32.7964373 L34.9811715,44.0114373 L34.9801715,44.0114373 Z"/>
</svg>
