<svg viewBox="0 0 37.29 67.67" xmlns="http://www.w3.org/2000/svg" xmlns:xlink="http://www.w3.org/1999/xlink"><linearGradient id="a" gradientUnits="userSpaceOnUse" x1="24.47" x2="28.5" y1="55.47" y2="55.47"><stop offset="0" stop-color="#fde500"/><stop offset="1" stop-color="#cfaa46"/></linearGradient><linearGradient id="b" gradientUnits="userSpaceOnUse" x1="11.24" x2="33.29" y1="22.08" y2="35.33"><stop offset="0" stop-color="#f8f5e6"/><stop offset="1" stop-color="#b09b91"/></linearGradient><linearGradient id="c" x1="22.52" x2="28.8" xlink:href="#b" y1="14.47" y2="18.24"/><path d="m35.92 2.52c-.93.3-6.51 6-10.38 10.1h-.1l-.21.1-1.69 1a6.22 6.22 0 0 0 -1.18 1.05 2.44 2.44 0 0 0 -.45.86 7.19 7.19 0 0 0 -.81-.73c-1.22-.9-15.8-10.9-18.33-12.9s-2.84-1.86-1.44-.42 14.49 11.78 20.62 16a2.3 2.3 0 0 0 .34.7 3.91 3.91 0 0 0 2.19 1.34c0 .09 0 .17.06.26s.23.79.48 1.59l-.27 21.87v.66l-.27 22a1 1 0 0 0 .59.82 3.15 3.15 0 0 0 2.85 0 .92.92 0 0 0 .57-1l-.27-22.1v-.46l-.15-12.26c1.68 5.3 3.42 10.81 3.86 12.45.88 3.29 1.25 3.65 1 1.81-.15-1.29-2.63-11-5-19.11l-.09-7.42.29-.17a1.73 1.73 0 0 0 1-1.67 5.21 5.21 0 0 0 -1.51-3.38c2.62-3.39 6.66-8.73 7.81-9.64 1.75-1.25 1.67-1.73.49-1.35z" fill="none" stroke="#000" stroke-miterlimit="10"/><path d="m28.49 65.87-.27-22.1a1.36 1.36 0 0 1 -.43.37 3.17 3.17 0 0 1 -2.87 0l-.18-.14-.27 22a1 1 0 0 0 .59.82 3.15 3.15 0 0 0 2.85 0 .92.92 0 0 0 .58-.95z" fill="url(#a)"/><g fill="#f8f5e6"><path d="m26.49 17.94c-.21-.3.61-.37 0 0a.66.66 0 0 0 .22.19c.46.26-.24 0 1.15.15.08-.26-.05-.53-.4-.73a2.23 2.23 0 0 0 -2 0 .7.7 0 0 0 -.41.58l1 .06c.04-.32.04-.02.44-.25z"/><path d="m25.48 18.7a2.23 2.23 0 0 0 2 0 .8.8 0 0 0 .39-.43c-1.39-.15-.7.11-1.15-.15a.66.66 0 0 1 -.22-.19c-.39.23-.4-.07-.39.23l-1-.06a.72.72 0 0 0 .37.6z"/><path d="m26.51 17.93c.61-.37-.21-.3 0 0z"/></g><path d="m28.22 43.31-.3-25a.8.8 0 0 1 -.39.43 2.23 2.23 0 0 1 -2 0 .72.72 0 0 1 -.42-.58l-.31 25.19v.65l.18.13a3.17 3.17 0 0 0 2.87 0 1.36 1.36 0 0 0 .43-.37z" fill="url(#b)"/><path d="m22.87 18.16c.2-1.2-.57-2.3-1.78-3.24s-15.79-10.92-18.32-12.92-2.84-1.86-1.44-.42 15.94 12.93 21.54 16.58z" fill="#e6d6c6"/><path d="m29.22 17a5.18 5.18 0 0 0 -2.35-4.05 1.82 1.82 0 0 0 -1.43-.27l-.21.1-1.69 1a6.22 6.22 0 0 0 -1.18 1.05 3 3 0 0 0 -.07 3.45 3.81 3.81 0 0 0 3.48 1.39 4.72 4.72 0 0 0 .9-.2 3.75 3.75 0 0 0 .78-.37l.76-.44a1.73 1.73 0 0 0 1.01-1.66z" fill="url(#c)"/><path d="m25.32 17.42c-1.1-.17-1.21.86-.79 2.42s6.47 20.37 7.4 23.66 1.25 3.65 1 1.81-5.12-20.67-7.61-27.89z" fill="#e6d6c6"/><path d="m22.87 15.54c.89 1.38 1.77 1.45 2.56.82s8.43-11.12 10.09-12.43 1.58-1.8.4-1.41-9.92 9.48-13.05 13.02z" fill="#e6d6c6"/></svg>