<svg viewBox="0 0 36.29 66.67" xmlns="http://www.w3.org/2000/svg" xmlns:xlink="http://www.w3.org/1999/xlink"><linearGradient id="a" gradientUnits="userSpaceOnUse" x1="23.97" x2="28" y1="54.97" y2="54.97"><stop offset="0" stop-color="#fde500"/><stop offset="1" stop-color="#cfaa46"/></linearGradient><linearGradient id="b" gradientUnits="userSpaceOnUse" x1="10.74" x2="32.79" y1="21.58" y2="34.83"><stop offset="0" stop-color="#f8f5e6"/><stop offset="1" stop-color="#b09b91"/></linearGradient><linearGradient id="c" x1="22.02" x2="28.3" xlink:href="#b" y1="13.97" y2="17.74"/><path d="m28 65.37-.27-22.1a1.36 1.36 0 0 1 -.43.37 3.17 3.17 0 0 1 -2.87 0l-.18-.13-.25 21.99a1 1 0 0 0 .59.82 3.15 3.15 0 0 0 2.85 0 .92.92 0 0 0 .56-.95z" fill="url(#a)"/><g fill="#f8f5e6"><path d="m26 17.44c-.21-.3.61-.37 0 0a.66.66 0 0 0 .22.19c.46.26-.24 0 1.15.15.08-.26-.05-.53-.4-.73a2.23 2.23 0 0 0 -2 0 .7.7 0 0 0 -.41.58l1 .06c.03-.32.03-.02.44-.25z"/><path d="m25 18.2a2.23 2.23 0 0 0 2 0 .8.8 0 0 0 .39-.43c-1.39-.15-.7.11-1.15-.15a.66.66 0 0 1 -.22-.19c-.39.23-.4-.07-.39.23l-1-.06a.72.72 0 0 0 .37.6z"/><path d="m26 17.43c.61-.37-.21-.3 0 0z"/></g><path d="m27.72 42.81-.3-25a.8.8 0 0 1 -.39.43 2.23 2.23 0 0 1 -2 0 .72.72 0 0 1 -.42-.58l-.31 25.19v.7l.18.13a3.17 3.17 0 0 0 2.87 0 1.36 1.36 0 0 0 .43-.37z" fill="url(#b)"/><path d="m22.37 17.66c.2-1.2-.57-2.3-1.78-3.24s-15.79-10.95-18.32-12.93-2.84-1.85-1.44-.41 15.94 12.92 21.54 16.58z" fill="#e6d6c6"/><path d="m28.72 16.45a5.18 5.18 0 0 0 -2.35-4.05 1.82 1.82 0 0 0 -1.43-.27l-.21.1-1.69 1a6.22 6.22 0 0 0 -1.18 1.05 3 3 0 0 0 -.07 3.45 3.81 3.81 0 0 0 3.48 1.39 4.72 4.72 0 0 0 .9-.2 3.75 3.75 0 0 0 .78-.37l.76-.44a1.73 1.73 0 0 0 1.01-1.66z" fill="url(#c)"/><path d="m24.82 16.92c-1.1-.17-1.21.86-.79 2.42s6.52 20.37 7.4 23.66 1.25 3.65 1 1.81-5.12-20.67-7.61-27.89z" fill="#e6d6c6"/><path d="m22.37 15c.89 1.38 1.77 1.45 2.56.82s8.43-11.08 10.07-12.39 1.58-1.8.4-1.41-9.91 9.46-13.03 12.98z" fill="#e6d6c6"/></svg>